<?xml version="1.0" standalone="no"?>
<!DOCTYPE svg PUBLIC "-//W3C//DTD SVG 20010904//EN"
 "http://www.w3.org/TR/2001/REC-SVG-20010904/DTD/svg10.dtd">
<svg version="1.0" xmlns="http://www.w3.org/2000/svg"
 width="200.000000pt" height="200.000000pt" viewBox="0 0 200.000000 200.000000"
 preserveAspectRatio="xMidYMid meet">
<metadata>
Created by potrace 1.16, written by Peter Selinger 2001-2019
</metadata>
<g transform="translate(0.000000,200.000000) scale(0.100000,-0.100000)"
fill="#000000" stroke="none">
<path d="M1431 1744 c-18 -13 -21 -25 -21 -85 l0 -69 -348 0 c-207 0 -372 -4
-408 -11 -181 -33 -344 -185 -395 -370 -6 -24 -12 -108 -13 -187 l-1 -144 28
-24 c34 -29 85 -32 118 -5 23 18 24 27 29 163 5 127 9 149 32 199 35 76 88
133 156 166 l57 28 373 3 372 3 0 -69 c0 -128 31 -126 206 19 110 92 134 117
134 138 0 22 -24 46 -132 136 -72 61 -139 113 -149 117 -9 3 -26 0 -38 -8z"/>
<path d="M948 1243 c-20 -23 -158 -231 -158 -238 0 -3 40 -5 90 -5 74 0 91 3
99 18 7 12 10 -24 11 -125 l0 -143 90 0 90 0 0 255 0 255 -103 0 c-87 0 -106
-3 -119 -17z"/>
<path d="M1609 1151 c-23 -18 -24 -27 -30 -163 -4 -126 -8 -150 -31 -199 -35
-76 -88 -133 -156 -166 l-57 -28 -372 -3 -373 -3 0 70 c0 60 -3 72 -21 85 -12
8 -29 12 -38 8 -9 -3 -76 -55 -149 -115 -108 -90 -132 -115 -132 -136 0 -21
25 -47 135 -139 174 -145 205 -148 205 -21 l0 68 383 3 c365 4 385 5 441 26
159 59 280 190 322 347 9 31 14 106 14 197 0 146 0 147 -26 167 -33 26 -84 27
-115 2z"/>
</g>
</svg>
