<?xml version="1.0" encoding="utf-8"?>
<!-- Generator: Adobe Illustrator 23.1.0, SVG Export Plug-In . SVG Version: 6.00 Build 0)  -->
<svg version="1.1" id="Outline" xmlns="http://www.w3.org/2000/svg" xmlns:xlink="http://www.w3.org/1999/xlink" x="0px" y="0px"
	 viewBox="0 0 512 512" style="enable-background:new 0 0 512 512;" xml:space="preserve">
<style type="text/css">
	.st0{fill:#FFFFFF;}
</style>
<path class="st0" d="M335.7,250.6L148.5,102.8c-4.9-3.9-12-3-15.9,1.9c-1.6,2-2.4,4.5-2.4,7v294.2c0,6.3,5.1,11.3,11.3,11.3
	c2.5,0,5-0.8,7-2.4l187.1-146.3c4.9-3.8,5.8-11,2-15.9C337,251.8,336.4,251.1,335.7,250.6L335.7,250.6z M152.8,382.6V135.1
	l157.5,124.4L152.8,382.6z"/>
<path class="st0" d="M369.2,93.4c-6.3,0-11.3,5.1-11.3,11.3v302.5c0,6.3,5.1,11.3,11.3,11.3c6.3,0,11.3-5.1,11.3-11.3V104.7
	C380.6,98.4,375.5,93.4,369.2,93.4z"/>
</svg>
