<?xml version="1.0" encoding="utf-8"?>
<!-- Generator: Adobe Illustrator 25.0.0, SVG Export Plug-In . SVG Version: 6.00 Build 0)  -->
<svg version="1.1" id="Layer_1" xmlns="http://www.w3.org/2000/svg" xmlns:xlink="http://www.w3.org/1999/xlink" x="0px" y="0px"
	 viewBox="0 0 200 200" style="enable-background:new 0 0 200 200;" xml:space="preserve">
<style type="text/css">
	.st0{fill:none;}
</style>
<g transform="translate(0.000000,200.000000) scale(0.100000,-0.100000)">
	<path d="M1431,1744c-18-13-21-25-21-85v-69h-348c-207,0-372-4-408-11c-181-33-344-185-395-370c-6-24-12-108-13-187l-1-144l28-24
		c34-29,85-32,118-5c23,18,24,27,29,163c5,127,9,149,32,199c35,76,88,133,156,166l57,28l373,3l372,3v-69c0-128,31-126,206,19
		c110,92,134,117,134,138c0,22-24,46-132,136c-72,61-139,113-149,117C1460,1755,1443,1752,1431,1744z"/>
	<path class="st0" d="M948,1243c-20-23-158-231-158-238c0-3,40-5,90-5c74,0,91,3,99,18c7,12,10-24,11-125V750h90h90v255v255h-103
		C980,1260,961,1257,948,1243z"/>
	<path d="M1609,1151c-23-18-24-27-30-163c-4-126-8-150-31-199c-35-76-88-133-156-166l-57-28l-372-3l-373-3v70c0,60-3,72-21,85
		c-12,8-29,12-38,8c-9-3-76-55-149-115c-108-90-132-115-132-136s25-47,135-139c174-145,205-148,205-21v68l383,3c365,4,385,5,441,26
		c159,59,280,190,322,347c9,31,14,106,14,197c0,146,0,147-26,167C1691,1175,1640,1176,1609,1151z"/>
</g>
</svg>
