<?xml version="1.0" standalone="no"?>
<!DOCTYPE svg PUBLIC "-//W3C//DTD SVG 20010904//EN"
 "http://www.w3.org/TR/2001/REC-SVG-20010904/DTD/svg10.dtd">
<svg version="1.0" xmlns="http://www.w3.org/2000/svg"
 width="512.000000pt" height="512.000000pt" viewBox="0 0 512.000000 512.000000"
 preserveAspectRatio="xMidYMid meet">
<metadata>
Created by potrace 1.16, written by Peter Selinger 2001-2019
</metadata>
<g transform="translate(0.000000,512.000000) scale(0.100000,-0.100000)"
fill="#000000" stroke="none">
<path d="M1045 5104 c-196 -47 -380 -199 -471 -388 -74 -153 -69 4 -69 -2156
0 -1822 1 -1939 18 -2011 49 -209 188 -383 382 -479 105 -52 186 -70 316 -70
204 0 364 65 504 205 92 93 135 160 179 283 l31 87 0 1985 0 1985 -31 87 c-44
123 -87 190 -179 283 -93 93 -198 154 -321 185 -93 24 -268 26 -359 4z"/>
<path d="M3712 5100 c-120 -32 -225 -93 -317 -185 -92 -93 -135 -160 -179
-283 l-31 -87 0 -1980 0 -1980 27 -85 c38 -118 90 -202 183 -295 139 -140 300
-205 504 -205 130 0 211 18 316 70 194 96 333 270 382 479 17 72 18 189 18
2011 0 1822 -1 1939 -18 2011 -61 259 -274 474 -527 534 -93 21 -266 19 -358
-5z"/>
</g>
</svg>
