<?xml version="1.0" encoding="utf-8"?>
<!-- Generator: Adobe Illustrator 23.1.0, SVG Export Plug-In . SVG Version: 6.00 Build 0)  -->
<svg version="1.1" id="Outline" xmlns="http://www.w3.org/2000/svg" xmlns:xlink="http://www.w3.org/1999/xlink" x="0px" y="0px"
	 viewBox="0 0 512 512" style="enable-background:new 0 0 512 512;" xml:space="preserve">
<style type="text/css">
	.st0{fill:#FFFFFF;}
</style>
<path class="st0" d="M339.7,93.4c-8.9,0-16.2,5.1-16.2,11.3c0,0,0,0,0,0v302.5c-0.3,6.3,6.8,11.5,15.7,11.7
	c8.9,0.2,16.4-4.7,16.7-11c0-0.2,0-0.4,0-0.7V104.7C355.8,98.4,348.6,93.4,339.7,93.4C339.7,93.4,339.7,93.4,339.7,93.4z"/>
<path class="st0" d="M178.2,93.4c-8.9,0-16.2,5.1-16.2,11.3v302.5c0,6.3,7.3,11.3,16.2,11.3c8.9,0,16.2-5.1,16.2-11.3l0,0V104.7
	C194.4,98.4,187.1,93.4,178.2,93.4z"/>
</svg>
