<?xml version="1.0" encoding="utf-8"?>
<!-- Generator: Adobe Illustrator 23.1.0, SVG Export Plug-In . SVG Version: 6.00 Build 0)  -->
<svg version="1.1" id="Outline" xmlns="http://www.w3.org/2000/svg" xmlns:xlink="http://www.w3.org/1999/xlink" x="0px" y="0px"
	 viewBox="0 0 512 512" style="enable-background:new 0 0 512 512;" xml:space="preserve">
<style type="text/css">
	.st0{fill:#FFFFFF;}
</style>
<path class="st0" d="M175,261.3l187.2,147.8c4.9,3.9,12,3,15.9-1.9c1.6-2,2.4-4.5,2.4-7V106c0-6.3-5.1-11.3-11.3-11.3
	c-2.5,0-5,0.8-7,2.4L175.1,243.4c-4.9,3.8-5.8,11-2,15.9C173.7,260.1,174.3,260.7,175,261.3L175,261.3z M357.9,129.3v247.5
	L200.4,252.4L357.9,129.3z"/>
<path class="st0" d="M141.5,418.5c6.3,0,11.3-5.1,11.3-11.3V104.7c0-6.3-5.1-11.3-11.3-11.3c-6.3,0-11.3,5.1-11.3,11.3v302.5
	C130.1,413.4,135.2,418.5,141.5,418.5z"/>
</svg>
