<?xml version="1.0" standalone="no"?>
<!DOCTYPE svg PUBLIC "-//W3C//DTD SVG 20010904//EN"
 "http://www.w3.org/TR/2001/REC-SVG-20010904/DTD/svg10.dtd">
<svg version="1.0" xmlns="http://www.w3.org/2000/svg"
 width="512.000000pt" height="512.000000pt" viewBox="0 0 512.000000 512.000000"
 preserveAspectRatio="xMidYMid meet">
<metadata>
Created by potrace 1.16, written by Peter Selinger 2001-2019
</metadata>
<g transform="translate(0.000000,512.000000) scale(0.100000,-0.100000)"
fill="#000000" stroke="none">
<path d="M515 4914 c-244 -53 -451 -260 -505 -504 -13 -62 -13 -3638 0 -3700
55 -251 265 -455 520 -506 291 -58 589 87 720 350 70 143 70 134 70 939 0 394
3 717 6 717 3 0 22 -14 42 -31 64 -53 3182 -1848 3241 -1865 38 -11 79 -15
137 -12 151 8 274 89 341 227 l28 56 0 1905 0 1905 -33 67 c-42 85 -128 167
-209 199 -75 29 -205 32 -278 6 -61 -21 -3184 -1822 -3237 -1867 l-38 -31 0
788 c0 882 1 865 -70 1009 -76 153 -221 278 -383 330 -105 33 -250 41 -352 18z"/>
</g>
</svg>
