<?xml version="1.0" ?><svg id="Outline" viewBox="0 0 512 512" xmlns="http://www.w3.org/2000/svg"><defs><style>.cls-1{fill:#262626;}</style></defs><path class="cls-1" d="M259,129.37a35.47,35.47,0,0,0-36.45,1.74l-70.25,46.73H98.75a40.55,40.55,0,0,0-40.5,40.5v73a40.55,40.55,0,0,0,40.5,40.49h53.59l70.25,46.74A35.52,35.52,0,0,0,277.78,349V160.68A35.46,35.46,0,0,0,259,129.37ZM255.11,349a12.84,12.84,0,0,1-20,10.69l-73.1-48.64a11.33,11.33,0,0,0-6.28-1.9h-57a17.83,17.83,0,0,1-17.82-17.81v-73a17.84,17.84,0,0,1,17.82-17.82h57a11.33,11.33,0,0,0,6.28-1.9L235.15,150a12.84,12.84,0,0,1,20,10.69Z"/><path class="cls-1" d="M325.76,198.05a11.34,11.34,0,0,0-17.34,14.61l2.05,2.44a57,57,0,0,1-3.3,77.47,11.34,11.34,0,0,0,16,16,80,80,0,0,0,4.6-108.12Z"/><path class="cls-1" d="M367.74,157.35a11.34,11.34,0,0,0-18.46,13.17,147.24,147.24,0,0,1,0,171,11.34,11.34,0,0,0,18.46,13.17A169.89,169.89,0,0,0,367.74,157.35Z"/><path class="cls-1" d="M412,113.88a11.89,11.89,0,0,0-1-1.29h0A11.34,11.34,0,0,0,393,126.2a242.85,242.85,0,0,1-.09,259.74A11.34,11.34,0,1,0,412,398.12a264.64,264.64,0,0,0,0-284.24Z"/></svg>