<?xml version="1.0" standalone="no"?>
<!DOCTYPE svg PUBLIC "-//W3C//DTD SVG 20010904//EN"
 "http://www.w3.org/TR/2001/REC-SVG-20010904/DTD/svg10.dtd">
<svg version="1.0" xmlns="http://www.w3.org/2000/svg"
 width="512.000000pt" height="512.000000pt" viewBox="0 0 512.000000 512.000000"
 preserveAspectRatio="xMidYMid meet">
<metadata>
Created by potrace 1.16, written by Peter Selinger 2001-2019
</metadata>
<g transform="translate(0.000000,512.000000) scale(0.100000,-0.100000)"
fill="#000000" stroke="none">
<path d="M575 5104 c-33 -8 -106 -37 -162 -64 -159 -78 -289 -215 -358 -380
-58 -137 -55 -19 -55 -2101 0 -1865 1 -1918 19 -1992 69 -268 281 -480 548
-547 76 -19 124 -20 1993 -20 1682 0 1923 2 1975 15 274 70 465 248 559 519
l21 61 3 1938 c3 2171 8 1996 -73 2162 -99 203 -258 335 -481 400 l-86 25
-1922 -1 c-1635 -1 -1930 -3 -1981 -15z m3843 -314 c201 -29 348 -183 372
-390 7 -53 9 -466 8 -1112 l-3 -1028 -30 28 c-16 15 -156 142 -310 282 -154
140 -289 263 -300 273 -122 112 -320 160 -466 112 -62 -21 -148 -73 -187 -114
-47 -49 -256 -273 -322 -346 -35 -38 -92 -99 -125 -135 -34 -36 -153 -164
-265 -285 -518 -561 -586 -632 -612 -641 -24 -7 -92 39 -303 207 -564 450
-590 470 -645 490 -110 41 -244 35 -352 -16 -30 -14 -167 -112 -304 -218
l-249 -193 -3 1305 c-1 834 1 1336 8 1390 13 111 52 194 124 267 65 64 161
113 245 124 83 11 3645 11 3719 0z m-543 -2159 c22 -10 49 -27 61 -37 12 -11
63 -57 114 -104 51 -47 102 -93 114 -103 12 -10 41 -37 66 -60 25 -23 95 -87
155 -142 61 -55 112 -102 115 -105 11 -11 130 -119 213 -194 l87 -79 0 -511
c0 -281 -5 -545 -10 -585 -27 -204 -177 -355 -380 -381 -101 -13 -3600 -13
-3699 0 -204 27 -354 177 -381 381 -5 40 -10 185 -10 321 l0 246 288 223 c158
122 315 245 349 271 73 57 119 70 160 42 16 -9 71 -52 123 -93 309 -245 388
-308 510 -405 223 -178 312 -221 442 -215 111 6 169 39 304 173 60 61 137 140
170 176 32 36 113 124 180 195 66 72 210 227 319 345 400 434 440 476 514 554
68 70 115 105 146 105 6 0 28 -8 50 -18z"/>
<path d="M1620 4316 c-383 -88 -599 -499 -455 -867 71 -181 251 -337 444 -385
91 -23 273 -16 358 14 206 73 367 245 420 452 21 84 21 236 0 317 -18 68 -65
168 -105 223 -46 62 -144 147 -213 184 -128 70 -307 94 -449 62z m250 -335
c119 -45 203 -162 204 -284 1 -129 -70 -240 -185 -292 -55 -24 -70 -27 -143
-23 -124 7 -207 61 -263 171 -124 245 130 526 387 428z"/>
</g>
</svg>
